<?xml version="1.0" encoding="UTF-8"?>
<svg id="Layer_1" xmlns="http://www.w3.org/2000/svg" version="1.1" viewBox="0 0 32 32">
  <!-- Generator: Adobe Illustrator 29.1.0, SVG Export Plug-In . SVG Version: 2.1.0 Build 142)  -->
  <defs>
    <style>
      .st0 {
        fill: #353431;
      }
    </style>
  </defs>
  <path class="st0" d="M26,5h-3v-1c0-.3,0-.5-.3-.7s-.4-.3-.7-.3-.5.1-.7.3c-.2.2-.3.4-.3.7v1h-10v-1c0-.3-.1-.5-.3-.7-.2-.2-.4-.3-.7-.3s-.5.1-.7.3c-.2.2-.3.4-.3.7v1h-3c-.5,0-1,.2-1.4.6s-.6.9-.6,1.4v20c0,.5.2,1,.6,1.4s.9.6,1.4.6h20c.5,0,1-.2,1.4-.6.4-.4.6-.9.6-1.4V7c0-.5-.2-1-.6-1.4-.4-.4-.9-.6-1.4-.6ZM9,7v1c0,.3.1.5.3.7.2.2.4.3.7.3s.5-.1.7-.3c.2-.2.3-.4.3-.7v-1h10v1c0,.3,0,.5.3.7s.4.3.7.3.5-.1.7-.3c.2-.2.3-.4.3-.7v-1h3v4H6v-4h3ZM26,27H6v-14h20v14ZM14,16v8c0,.3-.1.5-.3.7-.2.2-.4.3-.7.3s-.5,0-.7-.3-.3-.4-.3-.7v-6.4l-.6.3c-.2,0-.5,0-.8,0-.3,0-.5-.3-.6-.5s-.1-.5,0-.8c0-.3.3-.5.5-.6l2-1c.2,0,.3-.1.5-.1s.3,0,.5.1c.1,0,.3.2.3.4s.1.3.1.5h.1ZM21.4,19.8l-2.4,3.2h2c.3,0,.5,0,.7.3s.3.4.3.7,0,.5-.3.7-.4.3-.7.3h-4c-.2,0-.4,0-.5,0-.2,0-.3-.2-.4-.4,0-.2-.1-.4-.1-.5,0-.2,0-.4.2-.5l3.6-4.8c0,0,0-.2.2-.4v-.4c0,0,0-.3,0-.4,0,0-.2-.2-.3-.3,0,0-.2,0-.4-.2s-.3,0-.4,0-.3,0-.4.2c0,0-.2.2-.3.3,0,0-.2.2-.3.3,0,0-.2,0-.4.2h-.4c-.1,0-.3,0-.4,0,0,0-.2-.2-.3-.3,0,0,0-.2-.2-.4v-.4c0,0,0-.3,0-.4.3-.6.8-1,1.5-1.3.6-.3,1.3-.3,1.9-.1.6.2,1.2.5,1.6,1.1.4.5.6,1.2.6,1.8s-.2,1.3-.6,1.8h.2Z"/>
</svg>