<?xml version="1.0" encoding="UTF-8"?>
<svg id="Layer_1" xmlns="http://www.w3.org/2000/svg" version="1.1" viewBox="0 0 32 32">
  <!-- Generator: Adobe Illustrator 29.1.0, SVG Export Plug-In . SVG Version: 2.1.0 Build 142)  -->
  <defs>
    <style>
      .st0 {
        fill: #353431;
      }
    </style>
  </defs>
  <path class="st0" d="M16,6.5c-2.4,0-4.7.7-6.7,2-2,1.3-3.5,3.2-4.4,5.4-.9,2.2-1.1,4.6-.7,6.9.5,2.3,1.6,4.5,3.3,6.1,1.7,1.7,3.8,2.8,6.1,3.3,2.3.5,4.7.2,6.9-.7,2.2-.9,4.1-2.4,5.4-4.4,1.3-2,2-4.3,2-6.7,0-3.2-1.3-6.2-3.5-8.5-2.2-2.2-5.3-3.5-8.5-3.5ZM16,27.5c-1.8,0-3.5-.5-5-1.5-1.5-1-2.6-2.4-3.3-4-.7-1.6-.9-3.5-.5-5.2s1.2-3.3,2.5-4.6c1.3-1.3,2.9-2.1,4.6-2.5,1.7-.3,3.6-.2,5.2.5,1.6.7,3.1,1.8,4,3.3,1,1.5,1.5,3.2,1.5,5,0,2.4-1,4.7-2.6,6.4-1.7,1.7-4,2.6-6.4,2.6ZM20.6,13.4c.1.1.3.3.3.5,0,.2.1.4.1.6s0,.4-.1.6c0,.2-.2.3-.3.5l-3.5,3.5c-.3.3-.7.4-1.1.4s-.8-.2-1.1-.4c-.3-.3-.4-.7-.4-1.1s.2-.8.4-1.1l3.5-3.5c.1-.1.3-.3.5-.3.2,0,.4-.1.6-.1s.4,0,.6.1c.2,0,.3.2.5.3ZM11.5,3c0-.4.2-.8.4-1.1.3-.3.7-.4,1.1-.4h6c.4,0,.8.2,1.1.4.3.3.4.7.4,1.1s-.2.8-.4,1.1c-.3.3-.7.4-1.1.4h-6c-.4,0-.8-.2-1.1-.4-.3-.3-.4-.7-.4-1.1Z"/>
</svg>