<?xml version="1.0" encoding="UTF-8"?>
<svg id="Layer_1" xmlns="http://www.w3.org/2000/svg" version="1.1" viewBox="0 0 284.8 216.8">
  <!-- Generator: Adobe Illustrator 29.1.0, SVG Export Plug-In . SVG Version: 2.1.0 Build 142)  -->
  <defs>
    <style>
      .st0 {
        fill: #111;
      }

      .st1 {
        fill: none;
        stroke: #76a463;
        stroke-linecap: round;
        stroke-width: 13.8px;
      }

      .st2 {
        fill: #76a463;
      }
    </style>
  </defs>
  <path class="st1" d="M6.9,209.9V25.3C6.9,15.1,15.1,6.9,25.3,6.9h234.3c10.1,0,18.4,8.2,18.4,18.4v184.6"/>
  <rect class="st2" x="17.9" y="19.9" width="249" height="42" rx="8" ry="8"/>
  <rect class="st2" x="17.9" y="66.9" width="249" height="42" rx="8" ry="8"/>
  <rect class="st2" x="17.9" y="113.9" width="249" height="42" rx="8" ry="8"/>
  <rect class="st2" x="17.9" y="160.9" width="249" height="42" rx="8" ry="8"/>
  <path class="st0" d="M131.9,192.9h21c1.1,0,2,.9,2,2h0c0,1.1-.9,2-2,2h-21c-1.1,0-2-.9-2-2h0c0-1.1.9-2,2-2Z"/>
</svg>